<svg xmlns="http://www.w3.org/2000/svg" viewBox="0 0 64 64">
  <circle cx="32" cy="32" r="30" fill="#FDF2F8"/>
  <path d="M32 16c-2 0-4 1-5.5 2.5C25 20 24 22 24 24.5c0 5 8 13.5 8 13.5s8-8.5 8-13.5c0-2.5-1-4.5-2.5-6C36 17 34 16 32 16z" fill="#F472B6" stroke="#EC4899" stroke-width="1"/>
  <path d="M20 28c-4-1-7 1-7 5s4 8 8 8" fill="none" stroke="#FBCFE8" stroke-width="2.5" stroke-linecap="round"/>
  <path d="M44 28c4-1 7 1 7 5s-4 8-8 8" fill="none" stroke="#FBCFE8" stroke-width="2.5" stroke-linecap="round"/>
  <circle cx="24" cy="46" r="2" fill="#FBCFE8"/>
  <circle cx="32" cy="50" r="2.5" fill="#F9A8D4"/>
  <circle cx="40" cy="46" r="2" fill="#FBCFE8"/>
</svg>
